<svg xmlns="http://www.w3.org/2000/svg" viewBox="0 0 540 160" width="540" height="160">
  <defs>
    <linearGradient id="dfill" x1="0" y1="0" x2="0" y2="1">
      <stop offset="0%" stop-color="#EFF6FF"/>
      <stop offset="100%" stop-color="#DBEAFE"/>
    </linearGradient>
  </defs>
  <g transform="translate(66.85, 12.65)" fill="#111127">
    <path d="M37.63 101.47Q28.32 101.47 20.50 97.10Q12.67 92.74 8.11 84.91Q3.55 77.09 3.55 67.30L3.55 67.30Q3.55 57.50 8.11 49.73Q12.67 41.95 20.50 37.58Q28.32 33.22 37.63 33.22L37.63 33.22Q47.04 33.22 54.86 37.58Q62.69 41.95 67.20 49.73Q71.71 57.50 71.71 67.30L71.71 67.30Q71.71 77.09 67.20 84.91Q62.69 92.74 54.86 97.10Q47.04 101.47 37.63 101.47L37.63 101.47ZM37.63 91.97Q44.26 91.97 49.44 88.94Q54.62 85.92 57.55 80.30Q60.48 74.69 60.48 67.30L60.48 67.30Q60.48 59.90 57.55 54.34Q54.62 48.77 49.44 45.79Q44.26 42.82 37.63 42.82L37.63 42.82Q31.01 42.82 25.82 45.79Q20.64 48.77 17.71 54.34Q14.78 59.90 14.78 67.30L14.78 67.30Q14.78 74.69 17.71 80.30Q20.64 85.92 25.82 88.94Q31.01 91.97 37.63 91.97L37.63 91.97ZM129.12 53.95Q129.12 59.04 126.72 63.55Q124.32 68.06 119.04 70.90Q113.76 73.73 105.50 73.73L105.50 73.73L93.41 73.73L93.41 100.80L82.46 100.80L82.46 34.08L105.50 34.08Q113.18 34.08 118.51 36.72Q123.84 39.36 126.48 43.87Q129.12 48.38 129.12 53.95L129.12 53.95ZM105.50 64.80Q111.74 64.80 114.82 61.97Q117.89 59.14 117.89 53.95L117.89 53.95Q117.89 43.01 105.50 43.01L105.50 43.01L93.41 43.01L93.41 64.80L105.50 64.80ZM176.45 42.91L150.53 42.91L150.53 62.50L173.57 62.50L173.57 71.42L150.53 71.42L150.53 91.87L176.45 91.87L176.45 100.80L139.58 100.80L139.58 33.98L176.45 33.98L176.45 42.91ZM244.70 33.98L244.70 100.80L233.76 100.80L200.83 50.98L200.83 100.80L189.89 100.80L189.89 33.98L200.83 33.98L233.76 83.71L233.76 33.98L244.70 33.98Z"/>
  </g>
  <g transform="translate(397.55, 80)">
    <polygon points="0,-72 72,0 0,72 -72,0" fill="url(#dfill)" stroke="#2563EB" stroke-width="1.5" stroke-linejoin="round"/>
  </g>
  <g transform="translate(366.08, 24.72)" fill="#2563EB">
    <path d="M43.63 38.75L43.63 38.75Q46.91 35.59 50.63 33.59L50.63 33.59L55.66 33.59L55.66 35.31Q51.02 39.02 48.67 42.89L48.67 42.89Q47.89 44.22 46.17 48.87L46.17 48.87L48.32 61.60Q49.73 70.04 53.13 70.20L53.13 70.20Q56.48 70.35 59.65 67.77L59.65 67.77L59.65 73.83Q48.91 78.09 41.48 73.36L41.48 73.36Q40.08 72.46 38.67 71.05L38.67 71.05Q37.27 73.32 34.14 74.65L34.14 74.65Q30.59 76.25 24.77 76.25L24.77 76.25Q13.40 76.25 8.34 70.39Q3.28 64.53 3.28 54.34L3.28 54.34Q3.28 44.18 8.36 38.28L8.36 38.28Q13.36 32.46 25.78 32.62L25.78 32.62Q39.41 32.70 43.63 38.75ZM34.41 61.02L34.41 61.02L32.46 44.65Q31.80 38.95 26.48 38.55L26.48 38.55Q22.34 38.24 20.47 41.99L20.47 41.99Q18.71 45.39 18.71 54.34Q18.71 63.28 20.47 66.72L20.47 66.72Q22.27 70.20 26.48 70.16L26.48 70.16Q30.63 70.12 32.46 66.91L32.46 66.91Q32.93 66.09 34.41 61.02Z"/>
  </g>
</svg>
