<svg xmlns="http://www.w3.org/2000/svg" viewBox="0 0 580 160" width="580" height="160">
  <defs>
    <linearGradient id="dfill-light" x1="0" y1="0" x2="0" y2="1">
      <stop offset="0%" stop-color="#F9FCFF"/>
      <stop offset="100%" stop-color="#EDF5FF"/>
    </linearGradient>
    <linearGradient id="dstroke-light" x1="0" y1="0" x2="1" y2="1">
      <stop offset="0%" stop-color="#4AB7FF"/>
      <stop offset="100%" stop-color="#007BFF"/>
    </linearGradient>
  </defs>
  <g transform="translate(92.3, 18) scale(0.9)" fill="#1A1A1A">
    <path d="M37.82 101.47Q28.32 101.47 20.40 97.06Q12.48 92.64 7.82 84.72Q3.17 76.80 3.17 66.91L3.17 66.91Q3.17 57.02 7.82 49.15Q12.48 41.28 20.40 36.86Q28.32 32.45 37.82 32.45L37.82 32.45Q47.33 32.45 55.25 36.86Q63.17 41.28 67.73 49.15Q72.29 57.02 72.29 66.91L72.29 66.91Q72.29 76.80 67.68 84.72Q63.07 92.64 55.20 97.06Q47.33 101.47 37.82 101.47L37.82 101.47ZM37.82 86.50Q45.89 86.50 50.74 81.12Q55.58 75.74 55.58 66.91L55.58 66.91Q55.58 57.98 50.74 52.66Q45.89 47.33 37.82 47.33L37.82 47.33Q29.66 47.33 24.82 52.61Q19.97 57.89 19.97 66.91L19.97 66.91Q19.97 75.84 24.82 81.17Q29.66 86.50 37.82 86.50L37.82 86.50ZM132.77 55.10Q132.77 60.96 130.08 65.81Q127.39 70.66 121.82 73.63Q116.26 76.61 108 76.61L108 76.61L97.82 76.61L97.82 100.80L81.41 100.80L81.41 33.41L108 33.41Q116.06 33.41 121.63 36.19Q127.20 38.98 129.98 43.87Q132.77 48.77 132.77 55.10L132.77 55.10ZM106.75 63.55Q111.46 63.55 113.76 61.34Q116.06 59.14 116.06 55.10L116.06 55.10Q116.06 51.07 113.76 48.86Q111.46 46.66 106.75 46.66L106.75 46.66L97.82 46.66L97.82 63.55L106.75 63.55ZM182.59 46.56L157.73 46.56L157.73 60.19L179.71 60.19L179.71 72.86L157.73 72.86L157.73 87.65L182.59 87.65L182.59 100.80L141.31 100.80L141.31 33.41L182.59 33.41L182.59 46.56ZM253.54 33.41L253.54 100.80L237.12 100.80L209.66 59.23L209.66 100.80L193.25 100.80L193.25 33.41L209.66 33.41L237.12 75.17L237.12 33.41L253.54 33.41Z"/>
  </g>
  <g transform="translate(421.1, 80)">
    <polygon points="0,-76 76,0 0,76 -76,0" fill="url(#dfill-light)" stroke="url(#dstroke-light)" stroke-width="1.8" stroke-linejoin="round"/>
  </g>
  <g transform="translate(389.6, 24.7)" fill="#0D80FF">
    <path d="M43.63 38.75L43.63 38.75Q46.91 35.59 50.63 33.59L50.63 33.59L55.66 33.59L55.66 35.31Q51.02 39.02 48.67 42.89L48.67 42.89Q47.89 44.22 46.17 48.87L46.17 48.87L48.32 61.60Q49.73 70.04 53.13 70.20L53.13 70.20Q56.48 70.35 59.65 67.77L59.65 67.77L59.65 73.83Q48.91 78.09 41.48 73.36L41.48 73.36Q40.08 72.46 38.67 71.05L38.67 71.05Q37.27 73.32 34.14 74.65L34.14 74.65Q30.59 76.25 24.77 76.25L24.77 76.25Q13.40 76.25 8.34 70.39Q3.28 64.53 3.28 54.34L3.28 54.34Q3.28 44.18 8.36 38.28L8.36 38.28Q13.36 32.46 25.78 32.62L25.78 32.62Q39.41 32.70 43.63 38.75ZM34.41 61.02L34.41 61.02L32.46 44.65Q31.80 38.95 26.48 38.55L26.48 38.55Q22.34 38.24 20.47 41.99L20.47 41.99Q18.71 45.39 18.71 54.34Q18.71 63.28 20.47 66.72L20.47 66.72Q22.27 70.20 26.48 70.16L26.48 70.16Q30.63 70.12 32.46 66.91L32.46 66.91Q32.93 66.09 34.41 61.02Z"/>
  </g>
</svg>
